<svg width="15" height="20" viewBox="0 0 15 20" fill="none" xmlns="http://www.w3.org/2000/svg">
<path d="M10 20C10.663 20 11.2989 19.7366 11.7678 19.2678C12.2366 18.7989 12.5 18.163 12.5 17.5L12.5 5C12.5 4.33696 12.2366 3.70107 11.7678 3.23223C11.2989 2.76339 10.663 2.5 10 2.5H2.5C1.83696 2.5 1.20107 2.76339 0.732234 3.23223C0.263393 3.70107 0 4.33696 0 5L0 17.5C0 18.163 0.263393 18.7989 0.732234 19.2678C1.20107 19.7366 1.83696 20 2.5 20H10ZM11.25 17.5C11.25 17.8315 11.1183 18.1495 10.8839 18.3839C10.6495 18.6183 10.3315 18.75 10 18.75H2.5C2.16848 18.75 1.85054 18.6183 1.61612 18.3839C1.3817 18.1495 1.25 17.8315 1.25 17.5L1.25 5C1.25 4.66848 1.3817 4.35054 1.61612 4.11612C1.85054 3.8817 2.16848 3.75 2.5 3.75H10C10.3315 3.75 10.6495 3.8817 10.8839 4.11612C11.1183 4.35054 11.25 4.66848 11.25 5L11.25 17.5ZM15 15C15 15.4388 14.8845 15.8699 14.665 16.25C14.4456 16.63 14.13 16.9456 13.75 17.165L13.75 4.375C13.75 3.5462 13.4208 2.75134 12.8347 2.16529C12.2487 1.57924 11.4538 1.25 10.625 1.25H2.835C3.05442 0.869961 3.37 0.554372 3.75004 0.334952C4.13007 0.115532 4.56117 1.1148e-05 5 0H10.625C11.7853 0 12.8981 0.460935 13.7186 1.28141C14.5391 2.10188 15 3.21468 15 4.375L15 15Z" fill="#6677A0"/>
</svg>
