<svg width="36" height="36" viewBox="0 0 36 36" fill="none" xmlns="http://www.w3.org/2000/svg">
<path d="M12.6818 19.6364C13.6583 19.6364 14.5948 20.0243 15.2853 20.7147C15.9757 21.4052 16.3636 22.3417 16.3636 23.3182V32.3182C16.3636 33.2947 15.9757 34.2311 15.2853 34.9216C14.5948 35.6121 13.6583 36 12.6818 36H3.68182C2.70534 36 1.76885 35.6121 1.07838 34.9216C0.387905 34.2311 0 33.2947 0 32.3182V23.3182C0 22.3417 0.387905 21.4052 1.07838 20.7147C1.76885 20.0243 2.70534 19.6364 3.68182 19.6364H12.6818ZM25.0936 19.6364V25.0904H30.546V30.546H25.0936V35.9984H19.6364V30.5444H25.0904V25.0904H19.6364V19.6364H25.092H25.0936ZM36 30.5444V36H30.546V30.546H36V30.5444ZM12.6818 22.0909H3.68182C3.35633 22.0909 3.04416 22.2202 2.81401 22.4504C2.58385 22.6805 2.45455 22.9927 2.45455 23.3182V32.3182C2.45455 32.9956 3.00436 33.5455 3.68182 33.5455H12.6818C13.0073 33.5455 13.3195 33.4162 13.5496 33.186C13.7798 32.9558 13.9091 32.6437 13.9091 32.3182V23.3182C13.9091 22.9927 13.7798 22.6805 13.5496 22.4504C13.3195 22.2202 13.0073 22.0909 12.6818 22.0909ZM10.6364 25.3636V30.2727H5.72727V25.3636H10.6364ZM36 19.6364V25.0904H30.546V19.6364H36ZM12.6818 0C13.6583 0 14.5948 0.387905 15.2853 1.07838C15.9757 1.76885 16.3636 2.70534 16.3636 3.68182V12.6818C16.3636 13.6583 15.9757 14.5948 15.2853 15.2853C14.5948 15.9757 13.6583 16.3636 12.6818 16.3636H3.68182C2.70534 16.3636 1.76885 15.9757 1.07838 15.2853C0.387905 14.5948 0 13.6583 0 12.6818V3.68182C0 2.70534 0.387905 1.76885 1.07838 1.07838C1.76885 0.387905 2.70534 0 3.68182 0H12.6818ZM32.3182 0C33.2947 0 34.2311 0.387905 34.9216 1.07838C35.6121 1.76885 36 2.70534 36 3.68182V12.6818C36 13.6583 35.6121 14.5948 34.9216 15.2853C34.2311 15.9757 33.2947 16.3636 32.3182 16.3636H23.3182C22.3417 16.3636 21.4052 15.9757 20.7147 15.2853C20.0243 14.5948 19.6364 13.6583 19.6364 12.6818V3.68182C19.6364 2.70534 20.0243 1.76885 20.7147 1.07838C21.4052 0.387905 22.3417 0 23.3182 0H32.3182ZM12.6818 2.45455H3.68182C3.35633 2.45455 3.04416 2.58385 2.81401 2.81401C2.58385 3.04416 2.45455 3.35633 2.45455 3.68182V12.6818C2.45455 13.3593 3.00436 13.9091 3.68182 13.9091H12.6818C13.0073 13.9091 13.3195 13.7798 13.5496 13.5496C13.7798 13.3195 13.9091 13.0073 13.9091 12.6818V3.68182C13.9091 3.35633 13.7798 3.04416 13.5496 2.81401C13.3195 2.58385 13.0073 2.45455 12.6818 2.45455ZM32.3182 2.45455H23.3182C22.9927 2.45455 22.6805 2.58385 22.4504 2.81401C22.2202 3.04416 22.0909 3.35633 22.0909 3.68182V12.6818C22.0909 13.3593 22.6407 13.9091 23.3182 13.9091H32.3182C32.6437 13.9091 32.9558 13.7798 33.186 13.5496C33.4162 13.3195 33.5455 13.0073 33.5455 12.6818V3.68182C33.5455 3.35633 33.4162 3.04416 33.186 2.81401C32.9558 2.58385 32.6437 2.45455 32.3182 2.45455ZM10.6364 5.72727V10.6364H5.72727V5.72727H10.6364ZM30.2727 5.72727V10.6364H25.3636V5.72727H30.2727Z" fill="white"/>
</svg>
